<?xml version="1.0" standalone="no"?>
<!DOCTYPE svg PUBLIC "-//W3C//DTD SVG 20010904//EN"
 "http://www.w3.org/TR/2001/REC-SVG-20010904/DTD/svg10.dtd">
<svg version="1.0" xmlns="http://www.w3.org/2000/svg"
 width="24.000000pt" height="24.000000pt" viewBox="0 0 24.000000 24.000000"
 preserveAspectRatio="xMidYMid meet">

<g transform="translate(0.000000,24.000000) scale(0.100000,-0.100000)"
fill="#000000" stroke="none">
<path d="M24 187 c-3 -8 -4 -43 -2 -78 l3 -64 95 0 95 0 0 75 0 75 -93 3 c-72
2 -94 0 -98 -11z m176 -12 c0 -3 -18 -16 -40 -30 l-40 -25 -40 25 c-22 14 -40
27 -40 30 0 3 36 5 80 5 44 0 80 -2 80 -5z m-40 -50 l40 25 0 -45 0 -45 -80 0
-80 0 0 45 0 45 40 -25 40 -25 40 25z"/>
</g>
</svg>
