<?xml version="1.0" standalone="no"?>
<!DOCTYPE svg PUBLIC "-//W3C//DTD SVG 20010904//EN"
 "http://www.w3.org/TR/2001/REC-SVG-20010904/DTD/svg10.dtd">
<svg version="1.0" xmlns="http://www.w3.org/2000/svg"
 width="5907.000000pt" height="1456.000000pt" viewBox="0 0 5907.000000 1456.000000"
 preserveAspectRatio="xMidYMid meet">

<g transform="translate(0.000000,1456.000000) scale(0.100000,-0.100000)"
fill="#000000" stroke="none">
<path d="M7270 14543 c-469 -25 -894 -76 -1307 -158 -1373 -271 -2613 -880
-3603 -1771 -153 -137 -444 -430 -576 -579 -935 -1056 -1545 -2419 -1719
-3835 -65 -535 -73 -1181 -19 -1700 213 -2074 1269 -3891 2954 -5082 1200
-848 2641 -1324 4265 -1408 151 -8 6459 -10 22415 -8 21147 3 22214 4 22395
21 105 10 267 27 360 38 2859 332 5145 2018 6139 4526 456 1152 604 2478 420
3763 -196 1362 -796 2664 -1698 3685 -132 149 -424 442 -576 579 -991 891
-2231 1501 -3601 1771 -318 63 -602 102 -1014 142 -170 16 -1430 17 -22480 18
-12265 1 -22325 0 -22355 -2z m44585 -1801 c537 -50 852 -101 1258 -203 861
-218 1619 -598 2267 -1137 148 -124 454 -425 581 -572 437 -509 764 -1078 978
-1704 159 -463 252 -923 291 -1431 14 -179 14 -658 0 -845 -79 -1082 -448
-2086 -1061 -2890 -157 -206 -250 -312 -459 -521 -350 -352 -682 -606 -1105
-848 -770 -441 -1606 -688 -2650 -783 -207 -19 -44623 -19 -44830 0 -230 21
-401 41 -570 68 -1512 241 -2757 944 -3610 2039 -162 207 -344 488 -469 725
-341 642 -542 1325 -618 2100 -18 182 -18 900 0 1070 50 474 129 850 267 1265
208 629 519 1188 946 1700 186 223 534 557 784 752 960 749 2234 1178 3640
1226 44 2 10014 3 22155 2 17111 -1 22104 -4 22205 -13z"/>
<path d="M14247 10713 c-4 -3 -7 -321 -7 -705 l0 -698 1035 0 1035 0 0 705 0
705 -1028 0 c-566 0 -1032 -3 -1035 -7z"/>
<path d="M5870 7285 l0 -3425 1060 0 1060 0 2 2381 3 2382 1479 -2382 1480
-2381 1058 0 1058 0 0 3425 0 3425 -1060 0 -1060 0 -2 -2376 -3 -2376 -651
1054 c-358 579 -1019 1648 -1469 2376 l-817 1322 -1069 0 -1069 0 0 -3425z"/>
<path d="M44630 9454 c0 -691 -3 -1254 -7 -1252 -5 2 -65 33 -134 70 -329 176
-585 267 -889 314 -161 25 -511 26 -669 1 -686 -108 -1287 -504 -1687 -1112
-342 -520 -461 -1067 -369 -1689 90 -603 398 -1135 880 -1521 374 -300 808
-477 1290 -526 147 -14 458 -6 600 16 318 50 658 171 912 326 l63 38 0 -130 0
-129 1025 0 1025 0 0 3425 0 3425 -1020 0 -1020 0 0 -1256z m-575 -1624 c282
-71 472 -263 553 -559 l27 -96 3 -965 c3 -1041 3 -1058 -49 -1215 -82 -248
-255 -412 -514 -491 -79 -24 -107 -27 -235 -28 -123 -1 -157 3 -225 22 -227
65 -385 192 -481 387 -53 108 -80 211 -94 354 -6 61 -10 452 -10 926 0 474 4
865 10 926 25 259 118 458 275 589 189 156 482 216 740 150z"/>
<path d="M53485 10650 c-94 -15 -222 -58 -317 -107 -389 -200 -617 -620 -569
-1046 16 -144 42 -233 106 -362 138 -279 373 -471 683 -558 66 -18 103 -21
262 -21 157 0 197 4 262 22 371 102 664 391 758 747 98 376 -8 766 -282 1031
-149 144 -287 222 -488 275 -87 23 -319 33 -415 19z m352 -220 c204 -49 374
-159 491 -318 348 -472 137 -1134 -421 -1316 -413 -135 -867 74 -1039 477
-207 488 85 1047 607 1162 94 21 266 18 362 -5z"/>
<path d="M53220 9615 l0 -585 140 0 140 0 0 240 0 241 70 -3 70 -3 112 -237
111 -238 158 0 c88 0 159 2 159 5 0 3 -56 118 -125 255 -69 137 -125 254 -125
259 0 5 12 12 27 16 76 19 160 93 196 174 30 67 29 198 -2 262 -45 95 -134
156 -266 184 -53 11 -144 15 -367 15 l-298 0 0 -585z m565 375 c69 -35 90 -68
90 -140 0 -67 -20 -102 -76 -135 -28 -17 -56 -21 -166 -23 l-133 -4 0 167 0
167 118 -4 c100 -3 125 -8 167 -28z"/>
<path d="M24580 9550 l0 -460 -560 0 -560 0 0 -340 0 -340 560 0 560 0 0
-2275 0 -2275 1035 0 1035 0 0 2275 0 2275 555 0 555 0 0 340 0 340 -555 0
-555 0 0 460 0 460 -1035 0 -1035 0 0 -460z"/>
<path d="M50100 8723 c-945 -71 -1778 -496 -2290 -1168 -98 -129 -172 -250
-250 -410 -159 -325 -224 -608 -224 -975 0 -363 66 -650 224 -975 123 -251
251 -432 455 -644 157 -161 291 -274 473 -395 437 -290 916 -461 1487 -528
144 -17 596 -17 740 0 796 94 1454 403 1955 918 370 381 592 818 666 1314 24
157 24 463 0 620 -59 392 -210 748 -454 1073 -558 740 -1528 1185 -2560 1175
-97 -1 -197 -3 -222 -5z m450 -593 c325 -94 539 -364 602 -761 19 -123 19
-2265 0 -2388 -42 -261 -151 -476 -310 -607 -325 -268 -813 -238 -1095 66
-110 119 -180 258 -230 460 -21 84 -21 104 -25 1205 -3 1189 -2 1235 44 1406
32 121 65 195 130 295 116 177 283 290 500 338 97 22 284 15 384 -14z"/>
<path d="M30315 8699 c-1279 -70 -2373 -821 -2718 -1864 -78 -236 -107 -424
-107 -693 0 -248 26 -424 91 -637 116 -375 317 -703 614 -1001 164 -164 256
-240 455 -372 419 -280 878 -445 1450 -524 129 -18 711 -18 840 0 585 80 1039
247 1481 543 298 199 585 490 771 779 100 156 228 418 245 502 l6 28 -1027 0
-1026 0 0 -175 c0 -341 -43 -547 -152 -733 -43 -74 -197 -227 -271 -271 -141
-83 -360 -130 -511 -111 -340 43 -593 241 -702 550 -66 188 -67 200 -71 828
l-4 572 1942 0 1942 0 -6 128 c-56 1111 -994 2090 -2277 2376 -172 38 -374 65
-575 76 -196 10 -187 10 -390 -1z m404 -585 c269 -61 491 -247 590 -496 49
-122 72 -259 81 -493 5 -115 6 -229 3 -252 l-6 -43 -855 0 -855 0 6 228 c7
251 22 365 67 505 83 259 278 451 540 532 151 46 283 52 429 19z"/>
<path d="M20955 8619 c-514 -53 -1000 -264 -1388 -604 l-77 -66 0 235 0 236
-1025 0 -1025 0 0 -2280 0 -2280 1025 0 1025 0 0 1526 c0 1721 -6 1592 80
1769 229 469 855 672 1335 432 237 -118 415 -331 475 -571 20 -77 20 -114 20
-1618 l0 -1538 1024 0 1025 0 3 1263 c2 694 0 1329 -4 1411 -38 734 -363 1313
-953 1699 -444 290 -1036 438 -1540 386z"/>
<path d="M37745 8624 c-16 -2 -73 -9 -125 -15 -461 -51 -940 -269 -1317 -597
l-73 -63 0 236 0 235 -1025 0 -1025 0 0 -2280 0 -2280 1025 0 1025 0 2 1558 3
1557 31 87 c42 118 113 227 209 324 134 135 287 223 473 270 519 133 1048
-157 1173 -644 18 -73 19 -130 19 -1614 l0 -1538 1025 0 1026 0 -4 1408 c-3
1553 1 1454 -68 1732 -68 275 -195 540 -368 765 -63 82 -210 234 -302 310
-337 282 -822 486 -1285 540 -115 13 -338 18 -419 9z"/>
<path d="M14250 6140 l0 -2280 1030 0 1030 0 0 2280 0 2280 -1030 0 -1030 0 0
-2280z"/>
</g>
</svg>
