<?xml version="1.0" standalone="no"?>
<!DOCTYPE svg PUBLIC "-//W3C//DTD SVG 20010904//EN"
 "http://www.w3.org/TR/2001/REC-SVG-20010904/DTD/svg10.dtd">
<svg version="1.0" xmlns="http://www.w3.org/2000/svg"
 width="512.000000pt" height="512.000000pt" viewBox="0 0 512.000000 512.000000"
 preserveAspectRatio="xMidYMid meet">

<g transform="translate(0.000000,512.000000) scale(0.100000,-0.100000)"
fill="#000000" stroke="none">
<path d="M2412 5110 c-721 -53 -1284 -351 -1622 -859 -381 -571 -409 -1339
-67 -1851 72 -108 214 -244 322 -307 125 -75 175 -81 196 -26 19 48 99 367 99
394 0 16 -21 54 -56 100 -258 344 -282 831 -61 1263 253 494 778 778 1392 753
246 -11 428 -53 611 -142 353 -172 581 -486 660 -910 23 -122 26 -428 6 -545
-98 -554 -400 -957 -797 -1064 -94 -26 -257 -31 -339 -12 -244 58 -398 267
-366 497 10 67 62 247 160 554 103 322 132 482 112 612 -24 152 -98 258 -222
317 -60 29 -72 31 -170 30 -122 -1 -186 -20 -287 -86 -145 -93 -247 -255 -288
-453 -21 -102 -21 -312 -1 -417 8 -43 29 -118 46 -167 l30 -89 -195 -788
c-111 -453 -199 -827 -205 -879 -13 -118 -13 -579 1 -725 17 -192 48 -310 79
-310 26 0 281 413 390 630 105 210 130 280 246 704 57 209 108 389 112 398 6
15 14 8 49 -37 132 -171 432 -295 711 -295 618 1 1174 367 1462 964 230 477
279 1048 129 1498 -275 821 -1132 1321 -2137 1248z"/>
</g>
</svg>
