<?xml version="1.0" standalone="no"?>
<!DOCTYPE svg PUBLIC "-//W3C//DTD SVG 20010904//EN"
 "http://www.w3.org/TR/2001/REC-SVG-20010904/DTD/svg10.dtd">
<svg version="1.0" xmlns="http://www.w3.org/2000/svg"
 width="512.000000pt" height="512.000000pt" viewBox="0 0 512.000000 512.000000"
 preserveAspectRatio="xMidYMid meet">

<g transform="translate(0.000000,512.000000) scale(0.100000,-0.100000)"
fill="#000000" stroke="none">
<path d="M2475 4715 c-252 -45 -469 -148 -658 -310 -56 -48 -176 -184 -380
-427 l-298 -357 -232 -77 c-273 -90 -332 -116 -442 -189 -273 -182 -445 -486
-462 -821 -10 -189 31 -370 121 -540 57 -107 114 -180 210 -272 148 -140 253
-194 562 -287 120 -36 221 -69 225 -73 3 -4 105 -131 226 -282 122 -151 241
-294 264 -316 244 -230 526 -351 879 -375 221 -16 766 -6 890 16 119 22 251
64 359 117 l85 40 67 -11 c37 -6 121 -11 186 -11 277 0 511 94 712 285 148
141 245 306 298 503 24 86 27 116 26 257 0 139 -3 172 -25 255 -14 52 -40 126
-57 164 l-31 68 40 82 c59 119 74 190 74 331 0 232 -55 354 -267 589 l-57 64
12 53 c8 32 12 116 12 204 -1 128 -5 164 -27 247 -105 394 -414 688 -807 770
-79 17 -122 19 -254 16 l-159 -5 -81 58 c-162 117 -359 199 -560 234 -107 18
-351 19 -451 0z m440 -304 c90 -19 235 -69 269 -94 16 -12 -76 -45 -740 -265
-417 -138 -759 -250 -760 -249 -6 7 246 294 310 354 135 127 306 216 485 253
119 26 317 26 436 1z m1040 -301 c213 -55 387 -196 485 -395 97 -195 104 -392
24 -613 -61 -168 -83 -330 -64 -477 25 -204 88 -354 226 -535 133 -175 180
-289 191 -465 9 -148 -28 -295 -108 -433 -47 -78 -170 -200 -254 -250 -115
-67 -210 -95 -351 -100 -72 -2 -143 0 -175 7 -48 10 -451 130 -2573 762 -601
179 -669 205 -776 291 -291 236 -362 647 -169 975 47 80 171 202 254 251 57
34 269 108 1155 401 1584 525 1751 580 1795 590 76 17 255 13 340 -9z m785
-1371 c37 -52 68 -134 76 -203 8 -64 -3 -166 -17 -166 -14 0 -64 113 -83 186
-21 82 -32 224 -18 224 7 0 25 -18 42 -41z m-2247 -1780 c463 -138 844 -252
845 -254 13 -13 -170 -20 -508 -19 -361 0 -403 2 -490 21 -216 47 -371 132
-525 287 -110 111 -210 234 -181 223 9 -4 396 -120 859 -258z"/>
<path d="M910 2835 l0 -317 198 4 c210 5 249 13 300 61 80 74 64 209 -30 256
l-38 19 35 21 c44 26 69 80 62 134 -7 52 -29 83 -80 109 -39 21 -57 23 -244
26 l-203 3 0 -316z m349 169 c27 -34 26 -50 -4 -79 -22 -22 -32 -25 -105 -25
l-80 0 0 65 0 65 84 0 c79 0 86 -2 105 -26z m17 -248 c30 -34 30 -51 -1 -81
-22 -23 -32 -25 -115 -25 l-90 0 0 71 0 71 91 -4 c85 -4 94 -6 115 -32z"/>
<path d="M1602 2846 c-73 -167 -132 -309 -132 -315 0 -7 29 -11 79 -11 l79 0
22 60 22 60 138 0 138 0 24 -60 23 -60 157 0 158 0 0 190 c0 105 3 190 8 190
4 -1 70 -86 147 -190 l140 -190 70 3 70 2 3 313 2 312 -75 0 -75 0 -2 -192 -3
-192 -144 192 -143 192 -74 0 -74 0 -2 -302 -3 -303 -126 300 -126 300 -85 3
-85 3 -131 -305z m294 -83 c-2 -2 -42 -3 -89 -1 l-85 3 35 90 c19 50 39 101
45 115 9 23 14 14 54 -89 24 -63 42 -116 40 -118z"/>
<path d="M2800 2835 l0 -318 173 5 c144 4 181 9 228 27 121 46 189 140 197
271 7 133 -53 242 -166 297 -55 27 -62 28 -244 31 l-188 4 0 -317z m359 162
c89 -59 105 -203 34 -288 -37 -43 -80 -59 -163 -59 l-70 0 0 191 0 192 81 -6
c63 -4 88 -11 118 -30z"/>
<path d="M3488 2852 c-70 -163 -130 -305 -134 -315 -6 -16 0 -18 76 -15 l82 3
22 55 22 55 139 0 139 0 22 -55 22 -55 166 -3 166 -2 0 315 0 315 -80 0 -80 0
-2 -309 -3 -309 -130 309 -130 309 -85 0 -85 -1 -127 -297z m251 28 c23 -57
41 -107 41 -112 0 -4 -38 -8 -85 -8 -47 0 -85 4 -85 9 0 13 83 222 86 218 2
-1 21 -49 43 -107z"/>
<path d="M3189 2447 c-96 -27 -165 -83 -212 -171 -18 -34 -22 -57 -22 -136 0
-84 3 -101 27 -145 32 -60 87 -114 148 -146 38 -20 60 -24 140 -24 82 0 103 4
150 26 30 14 70 38 88 54 l33 28 -47 48 c-42 42 -50 47 -63 35 -59 -51 -163
-71 -220 -41 -91 47 -128 183 -73 267 37 57 71 73 148 73 66 0 75 -3 112 -32
23 -18 44 -33 47 -33 6 0 49 47 74 82 11 17 10 22 -9 43 -59 63 -223 100 -321
72z"/>
<path d="M3769 2447 c-96 -27 -165 -83 -212 -171 -18 -34 -22 -57 -22 -136 0
-84 3 -101 27 -146 57 -108 153 -165 288 -172 150 -7 258 51 320 172 31 61 35
78 35 145 -1 58 -6 89 -24 129 -30 66 -113 144 -178 167 -65 22 -177 28 -234
12z m192 -150 c68 -46 99 -152 68 -234 -23 -63 -95 -113 -161 -113 -43 0 -110
34 -136 69 -67 92 -46 215 47 278 47 32 135 32 182 0z"/>
<path d="M910 2135 l0 -315 75 0 75 0 2 193 3 192 145 -192 145 -193 151 0
152 0 22 60 22 60 138 0 137 0 26 -60 26 -60 155 0 156 0 0 203 0 202 73 -165
72 -165 56 -3 55 -3 69 163 70 162 6 -99 c4 -55 7 -144 8 -198 l1 -98 68 3 67
3 3 313 2 313 -91 -3 -91 -3 -81 -177 c-45 -98 -83 -178 -86 -178 -3 0 -42 80
-86 178 l-81 177 -92 3 -92 3 -2 -303 -3 -302 -126 300 -126 299 -85 3 -85 3
-134 -312 -134 -311 -3 311 -2 311 -75 0 -75 0 -2 -187 -3 -187 -140 187 -140
187 -72 0 -73 0 0 -315z m1017 -72 c-3 -2 -43 -3 -90 -1 l-85 3 39 100 c21 55
41 107 45 115 3 9 24 -33 50 -99 24 -63 43 -116 41 -118z"/>
</g>
</svg>
