<?xml version="1.0" standalone="no"?>
<!DOCTYPE svg PUBLIC "-//W3C//DTD SVG 20010904//EN"
 "http://www.w3.org/TR/2001/REC-SVG-20010904/DTD/svg10.dtd">
<svg version="1.0" xmlns="http://www.w3.org/2000/svg"
 width="500.000000pt" height="90.000000pt" viewBox="0 0 500.000000 90.000000"
 preserveAspectRatio="xMidYMid meet">

<g transform="translate(0.000000,90.000000) scale(0.100000,-0.100000)"
fill="#000000" stroke="none">
<path d="M355 883 c-111 -15 -239 -69 -287 -120 -117 -123 -47 -306 137 -358
50 -14 160 -31 397 -59 146 -18 171 -26 194 -60 19 -31 13 -67 -17 -95 -59
-55 -265 -71 -413 -32 -126 33 -186 76 -211 148 -13 37 -14 38 -69 41 l-56 3
0 -151 0 -150 65 0 c63 0 65 1 65 25 0 30 10 31 77 5 105 -40 250 -63 358 -56
226 13 382 91 414 209 24 83 -7 182 -72 231 -78 60 -168 83 -452 116 -99 11
-191 24 -205 27 -34 8 -60 32 -60 55 0 66 72 100 225 106 217 8 367 -48 412
-155 12 -30 17 -33 58 -33 l45 0 0 135 0 135 -54 0 c-49 0 -55 -2 -58 -22 -2
-13 -8 -22 -13 -20 -6 1 -48 15 -95 32 -130 44 -265 59 -385 43z"/>
<path d="M1658 880 c-140 -25 -275 -86 -345 -156 -24 -25 -59 -75 -76 -112
-29 -61 -32 -76 -32 -162 0 -88 3 -101 33 -162 58 -119 188 -211 357 -253 95
-24 285 -24 380 0 220 55 353 178 386 357 39 212 -111 407 -366 473 -70 19
-270 28 -337 15z m246 -127 c144 -43 225 -170 214 -331 -9 -117 -78 -215 -186
-265 -38 -17 -67 -21 -147 -21 -90 -1 -106 2 -157 27 -114 56 -178 162 -178
293 0 232 213 371 454 297z"/>
<path d="M2490 790 l0 -50 59 0 c94 0 91 11 91 -294 0 -190 -3 -265 -12 -274
-7 -7 -38 -12 -70 -12 l-58 0 0 -50 0 -50 225 0 225 0 0 50 0 50 -69 0 c-46 0
-72 5 -80 14 -8 9 -11 77 -9 223 l3 210 305 -273 305 -273 78 -1 78 0 -2 329
c0 182 2 335 6 340 3 6 35 11 71 11 l64 0 0 50 0 50 -225 0 -225 0 0 -50 0
-50 64 0 c39 0 67 -5 74 -12 5 -7 12 -93 15 -190 l5 -178 -47 40 c-25 21 -145
129 -266 239 l-220 200 -192 1 -193 0 0 -50z"/>
<path d="M3800 790 l0 -50 63 0 c40 0 70 -5 85 -16 12 -8 92 -94 177 -191
l155 -176 0 -87 c0 -53 -5 -91 -12 -98 -7 -7 -39 -12 -75 -12 l-63 0 0 -50 0
-50 268 2 267 3 3 48 3 47 -71 0 c-66 0 -71 1 -80 26 -6 14 -10 59 -10 99 l0
74 151 173 c83 95 160 181 171 191 15 13 38 17 89 17 l69 0 0 50 0 50 -220 0
-220 0 0 -50 0 -50 39 0 c22 0 42 -4 46 -9 6 -11 -183 -234 -195 -229 -11 4
-190 221 -190 230 0 4 18 8 40 8 l40 0 0 50 0 50 -265 0 -265 0 0 -50z"/>
</g>
</svg>
